<?xml version="1.0" encoding="utf-8"?>
<!-- Generator: Adobe Illustrator 25.0.1, SVG Export Plug-In . SVG Version: 6.00 Build 0)  -->
<svg version="1.1" id="Layer_1" xmlns="http://www.w3.org/2000/svg" xmlns:xlink="http://www.w3.org/1999/xlink" x="0px" y="0px"
	 viewBox="0 0 233.48 25.28" style="enable-background:new 0 0 233.48 25.28;" xml:space="preserve">
<style type="text/css">
	.st0{fill:#005696;}
</style>
<g>
	<path class="st0" d="M2.7,4.43V3.99h6.95v0.43H8.2l4.85,13.64h0.05l2.38-7.45l-2.1-6.19h-1.73V3.99h7.46v0.43h-1.88l4.46,13.71
		h0.05l3.55-10.97c0.26-0.82,0.41-1.39,0.41-1.73c0-0.41-0.22-1.01-1.64-1.01h-0.17V3.99h5.01v0.43h-0.8
		c-0.65,0-1.44,0.48-2.07,2.36l-5.66,16.87h-0.58l-3.73-11.26l-0.32-0.98l-4.04,12.24h-0.6L4.28,4.43H2.7z"/>
	<path class="st0" d="M30.2,22.83h1.95V6.77H30.2V6.33h13.44v4.79H43.2v-0.34c0-2.19-1.61-4.02-4.47-4.02H35.9v7.36h1.66
		c1.56,0,2.38-0.89,2.38-3.18v-0.26h0.43v7.6h-0.43v-0.55c0-1.71-0.82-3.17-2.38-3.17H35.9v8.27h3.46c3.94,0,4.52-3.27,4.52-4.64
		v-0.34h0.44v5.41H30.2V22.83z"/>
	<path class="st0" d="M53.84,15.12h1.35c2.76-0.14,3.46-1.49,3.39-4.5c0-2.98-0.94-3.85-2.98-3.85h-1.76V15.12z M48.14,22.83h1.95
		V6.77h-1.95V6.33h7.55c2.65,0,6.93,0.55,6.93,4.55c0,3.17-3.22,4.16-5.65,4.33v0.05c3.54,0.31,5.27,1.1,5.32,3.68
		c0.05,3.77,0.39,3.84,1.35,3.84c0.24,0,0.6-0.15,0.87-0.31l0.17,0.36c-0.84,0.62-2.02,0.82-2.93,0.82c-2.57,0-3.49-1.25-3.49-3.89
		c0-3.31-0.65-4.16-3.12-4.21h-1.28v7.28h2.02v0.43h-7.72V22.83z"/>
	<path class="st0" d="M73.18,22.83h2c4.71,0,5.1-3.9,5.1-8.13c0-4.59-0.41-7.94-4.79-7.94h-2.31V22.83z M67.48,22.83h1.95V6.77
		h-1.95V6.33h8.3c5.03,0,8.54,3.27,8.54,8.58c0,3.03-1.85,8.35-8.39,8.35h-8.44V22.83z"/>
	<path class="st0" d="M87.66,22.83h1.95V6.77h-1.95V6.33h13.44v4.79h-0.43v-0.34c0-2.19-1.61-4.02-4.47-4.02h-2.84v7.36h1.66
		c1.56,0,2.38-0.89,2.38-3.18v-0.26h0.43v7.6H97.4v-0.55c0-1.71-0.82-3.17-2.38-3.17h-1.66v8.27h3.46c3.94,0,4.52-3.27,4.52-4.64
		v-0.34h0.43v5.41H87.66V22.83z"/>
	<path class="st0" d="M131.93,3.97h8.08v0.43h-2.33l5.35,14.39l4.32-11.96c0.17-0.48,0.29-1.08,0.29-1.54
		c0-0.58-0.36-0.89-1.18-0.89h-0.63V3.97h5.18v0.43h-0.97c-0.65,0-1.18,0.22-2.16,2.84l-6.08,16.4h-0.96l-7.2-19.24h-1.71V3.97z"/>
	<polygon class="st0" points="152.27,22.83 154.22,22.83 154.22,6.77 152.27,6.77 152.27,6.33 159.92,6.33 159.92,6.77 157.97,6.77 
		157.97,22.83 159.92,22.83 159.92,23.26 152.27,23.26 	"/>
	<path class="st0" d="M177.4,21.6c-1.4,1.16-3.46,2.05-6.35,2.05c-4.4,0-8.03-3.56-8.03-8.56c0-5.39,3.49-9.14,7.74-9.14
		c2.21,0,4.02,1.27,4.67,1.27c0.5,0,0.72-0.31,0.72-0.77h0.43v5.53h-0.43c-0.34-2.84-2.12-5.6-5.22-5.6c-2.96,0-3.87,3.56-3.87,8.42
		c0,7.48,1.63,8.42,3.92,8.42c1.59,0,2.81-0.79,2.81-2.58v-2.67h-1.78v-0.43h6.78v0.43h-1.4V21.6z"/>
	<path class="st0" d="M189.14,17.4l-2.09-6.09H187l-2.14,6.09H189.14z M180.82,22.83h0.31c0.92-0.07,1.35-0.65,1.63-1.44l5.58-15.44
		h0.36l6.45,16.88h1.18v0.43h-7.17v-0.43h1.92l-1.75-5h-4.67l-1.15,3.39c-0.07,0.19-0.17,0.46-0.17,0.72c0,0.79,0.67,0.89,1.15,0.89
		h0.67v0.43h-4.35V22.83z"/>
	<path class="st0" d="M198.18,22.83h0.17h0.27c0.74,0,1.44-0.26,1.44-1.73V8.18L199,6.77h-0.75V6.33h4.96L212.27,18h0.05V8.14
		c0-0.92-0.58-1.37-1.63-1.37h-0.46V6.33h4.55v0.43h-0.34c-1.08,0-1.54,0.7-1.54,1.3v15.49h-1.01L200.68,8.93h-0.05v12.29
		c0,1.37,0.53,1.61,1.88,1.61h0.22v0.43h-4.55V22.83z"/>
	<path class="st0" d="M226.05,5.59h-0.31l-3.15-3.34c-0.39-0.41-0.58-0.79-0.58-0.96c0-0.36,0.24-0.6,0.92-0.6
		c0.72,0,0.79,0.17,1.37,1.32L226.05,5.59z M228.65,14.8c0-7.6-1.76-8.42-3.61-8.42c-1.85,0-3.61,0.82-3.61,8.42
		c0,6.11,0.79,8.42,3.61,8.42C227.86,23.22,228.65,20.91,228.65,14.8 M225.04,5.95c4.55,0,7.65,4.14,7.65,8.85
		c0.09,4.5-3.39,8.85-7.65,8.85c-4.26,0-7.74-4.35-7.65-8.85C217.4,10.08,220.5,5.95,225.04,5.95"/>
	<path class="st0" d="M111.25,15.12h1.35c2.77-0.14,3.46-1.49,3.39-4.5c0-2.98-0.94-3.85-2.98-3.85h-1.76V15.12z M105.55,22.83h1.95
		V6.77h-1.95V6.33h7.55c2.64,0,6.93,0.55,6.93,4.55c0,3.17-3.22,4.16-5.65,4.33v0.05c3.54,0.31,5.27,1.1,5.32,3.68
		c0.05,3.77,0.39,3.84,1.35,3.84c0.24,0,0.6-0.15,0.87-0.31l0.17,0.36c-0.84,0.62-2.02,0.82-2.94,0.82c-2.57,0-3.49-1.25-3.49-3.89
		c0-3.31-0.65-4.16-3.12-4.21h-1.28v7.28h2.02v0.43h-7.72V22.83z"/>
	
		<rect x="126.32" y="12.58" transform="matrix(0.707 -0.7072 0.7072 0.707 27.3804 94.7943)" class="st0" width="3.55" height="3.55"/>
</g>
</svg>
